<?xml version="1.0" encoding="utf-8"?>
<!-- Generator: Adobe Illustrator 16.2.1, SVG Export Plug-In . SVG Version: 6.00 Build 0)  -->
<!DOCTYPE svg PUBLIC "-//W3C//DTD SVG 1.1//EN" "http://www.w3.org/Graphics/SVG/1.1/DTD/svg11.dtd">
<svg version="1.1" id="Layer_1" xmlns="http://www.w3.org/2000/svg" xmlns:xlink="http://www.w3.org/1999/xlink" x="0px" y="0px"
	 width="96.731px" height="97.396px" viewBox="0 0 96.731 97.396" enable-background="new 0 0 96.731 97.396" xml:space="preserve">
<path fill="#EF7D08" d="M88.946,59.506l-8.254-7.356c-2.391-2.131-2.39-5.616,0.001-7.746l8.253-7.355
	c2.391-2.131,1.753-4.118-1.417-4.42l-10.948-1.036c-3.169-0.301-4.874-3.026-3.784-6.055l5.809-16.173
	c1.088-3.031-0.244-4.136-2.961-2.452l-12.913,7.986c-2.718,1.681-6.227,0.762-7.799-2.043l-4.677-8.347
	c-1.573-2.805-4.17-2.82-5.772-0.034l-4.347,7.557c-1.602,2.787-5.287,3.977-8.186,2.645l-7.647-3.513
	c-2.9-1.332-5.131,0.213-4.958,3.433l0.415,7.723c0.173,3.22-2.204,6.535-5.28,7.363l-7.385,1.986
	c-3.076,0.83-3.638,3.25-1.248,5.381l8.255,7.355c2.391,2.129,2.391,5.614,0,7.744l-8.255,7.357
	c-2.391,2.131-1.759,4.187,1.402,4.572l10.016,1.218c3.161,0.387,4.922,3.205,3.915,6.264l-5.138,15.579
	c-1.008,3.059,0.429,4.251,3.194,2.652l11.777-6.815c2.765-1.599,6.483-0.719,8.262,1.954l4.89,7.353
	c1.778,2.676,4.447,2.529,5.928-0.325l4.3-8.287c1.482-2.856,5.031-4.023,7.885-2.596l8.292,4.146
	c2.856,1.425,5.05-0.039,4.877-3.259l-0.415-7.727c-0.172-3.22,2.205-6.533,5.282-7.361l7.382-1.987
	C90.775,64.056,91.337,61.636,88.946,59.506z M52.178,68.357h-9.563V58.317h9.563V68.357z M52.178,53.058h-9.563V28.195h9.563
	V53.058z"/>
</svg>
