<?xml version="1.0" encoding="utf-8"?>
<!-- Generator: Adobe Illustrator 16.2.1, SVG Export Plug-In . SVG Version: 6.00 Build 0)  -->
<!DOCTYPE svg PUBLIC "-//W3C//DTD SVG 1.1//EN" "http://www.w3.org/Graphics/SVG/1.1/DTD/svg11.dtd">
<svg version="1.1" id="Layer_1" xmlns="http://www.w3.org/2000/svg" xmlns:xlink="http://www.w3.org/1999/xlink" x="0px" y="0px"
	 width="96.731px" height="97.396px" viewBox="0 0 96.731 97.396" enable-background="new 0 0 96.731 97.396" xml:space="preserve">
<g>
	<path fill="#03779E" d="M47.385,2.399C21.983,2.739,1.667,23.61,2.004,49.015c0.34,25.393,21.209,45.715,46.611,45.377
		c25.398-0.342,45.719-21.213,45.381-46.615C93.656,22.382,72.785,2.061,47.385,2.399z M52.484,17.729
		c4.676,0,6.057,2.714,6.057,5.815c0,3.877-3.104,7.461-8.396,7.461c-4.43,0-6.537-2.229-6.414-5.91
		C43.731,21.992,46.33,17.729,52.484,17.729z M40.497,77.146c-3.195,0-5.537-1.938-3.301-10.467l3.666-15.125
		c0.637-2.424,0.744-3.393,0-3.393c-0.959,0-5.107,1.674-7.557,3.322l-1.598-2.617c7.773-6.491,16.712-10.299,20.544-10.299
		c3.195,0,3.727,3.779,2.131,9.594l-4.199,15.9c-0.744,2.811-0.424,3.779,0.318,3.779c0.961,0,4.102-1.166,7.188-3.59l1.811,2.424
		C51.939,74.233,43.69,77.146,40.497,77.146z"/>
</g>
</svg>
